<?xml version="1.0" standalone="no"?>
<!DOCTYPE svg PUBLIC "-//W3C//DTD SVG 20010904//EN"
 "http://www.w3.org/TR/2001/REC-SVG-20010904/DTD/svg10.dtd">
<svg version="1.0" xmlns="http://www.w3.org/2000/svg"
 width="638.003079pt" height="142.533026pt" viewBox="0 0 638.003079 142.533026"
 preserveAspectRatio="xMidYMid meet">
<metadata>
Created by potrace 1.16, written by Peter Selinger 2001-2019
</metadata>
<g transform="translate(0.000000,143.000000) scale(0.100000,-0.100000)"
fill="#000000" stroke="none">
<path d="M6 1423 c-3 -4 -6 -322 -6 -709 0 -660 1 -702 17 -706 10 -2 32 -4
48 -3 17 1 85 2 153 3 l122 2 0 275 0 276 122 -3 121 -3 201 -275 201 -275 85
1 c47 1 141 2 208 3 l124 1 -32 43 c-31 41 -220 299 -401 547 -50 69 -95 130
-100 136 -5 6 23 51 74 116 299 387 427 559 423 567 -4 5 -92 9 -196 10 l-190
0 -38 -47 c-20 -27 -113 -150 -207 -275 l-170 -226 -112 -1 -113 0 0 270 0
270 -137 1 c-76 0 -150 2 -165 4 -14 2 -29 1 -32 -2z M1688 1322 l-148 -106 0
-606 0 -605 167 2 168 1 3 711 2 711 -22 -1 c-13 0 -89 -48 -170 -107z M2127
1424 c-4 -4 -7 -324 -7 -711 l0 -703 540 0 c297 0 543 -1 548 -2 4 -2 8 68 10
155 l3 157 -297 0 -296 0 -78 -55 c-43 -30 -80 -55 -82 -55 -1 0 -2 272 0 605
l2 605 -147 0 c-82 0 -157 3 -168 6 -11 3 -24 2 -28 -2z M3380 721 l0 -710 23
-3 c12 -2 88 -2 169 0 l148 3 2 440 3 440 80 -102 c44 -56 127 -162 185 -235
235 -297 415 -527 421 -536 7 -11 37 -12 231 -10 l118 2 -3 708 -2 707 -170 0
-170 0 -5 -440 -5 -439 -135 173 c-74 96 -162 208 -195 251 -120 155 -201 257
-283 358 l-83 102 -165 0 -164 0 0 -709z M4900 1418 c0 -6 8 -21 19 -32 14
-16 432 -569 489 -647 14 -20 -17 -63 -511 -705 -18 -23 -18 -24 0 -24 111 -2
396 0 398 2 1 2 74 100 161 218 88 118 163 216 168 218 4 2 82 -95 172 -216
90 -121 169 -221 176 -223 7 -2 102 -2 211 1 l197 5 -78 100 c-87 112 -148
191 -342 445 -74 96 -158 207 -188 245 -30 39 -149 195 -265 348 l-210 277
-199 0 c-146 0 -198 -3 -198 -12z M5943 1392 c-16 -20 -72 -94 -126 -165 -66
-85 -95 -132 -90 -141 4 -7 48 -66 98 -130 l89 -116 22 22 c34 36 424 546 424
555 0 4 -88 9 -195 10 l-195 2 -27 -37z"/>
</g>
</svg>
